<svg xmlns="http://www.w3.org/2000/svg" viewBox="0 0 388 424"><defs><style>.cls-1{fill:#fff;}.cls-2{fill:#ff3b49;}.cls-3{fill:#bb323c;}</style></defs><g id="Layer_2" data-name="Layer 2"><g id="Layer_1-2" data-name="Layer 1"><path class="cls-1" d="M293.25,0H83A46.14,46.14,0,0,0,37,46V378a46.14,46.14,0,0,0,46,46H342a46.14,46.14,0,0,0,46-46V94.75Z"/><path class="cls-2" d="M36.71,199.4H26.5A26.58,26.58,0,0,0,0,225.9V343.15a26.57,26.57,0,0,0,26.5,26.5h203a26.57,26.57,0,0,0,26.5-26.5v-61.5a26.58,26.58,0,0,0-26.5-26.5H36.71"/><path class="cls-3" d="M37,199.4H26.5A26.58,26.58,0,0,0,0,225.9v1.85c0,14.58,11.92,27.38,26.5,27.38H37Z"/><rect class="cls-2" x="97.31" y="75.17" width="95.53" height="17.57" rx="8.78"/><rect class="cls-2" x="97.31" y="116.37" width="135.51" height="17.57" rx="8.78"/><rect class="cls-2" x="97.31" y="157.57" width="135.51" height="17.57" rx="8.78"/><path class="cls-1" d="M59.79,343.17a5.2,5.2,0,0,1-4-1.46,5.65,5.65,0,0,1-1.38-4V289.07A5.38,5.38,0,0,1,55.87,285a5.5,5.5,0,0,1,4-1.38H80q9.69,0,15,4.84T100.21,302q0,8.69-5.26,13.57t-15,4.88H65.14v17.2a5.77,5.77,0,0,1-1.34,4A5.18,5.18,0,0,1,59.79,343.17ZM65.14,312H78.33c3.79,0,6.65-.85,8.6-2.55s2.92-4.19,2.92-7.47-1-5.76-2.92-7.43-4.81-2.51-8.6-2.51H65.14Z"/><path class="cls-1" d="M114.57,342.5a5.11,5.11,0,0,1-5.68-5.67V289.32a5.11,5.11,0,0,1,5.68-5.68h16.2q14.78,0,22.83,7.6T161.66,313a35.63,35.63,0,0,1-2,12.57,24,24,0,0,1-6,9.22,26,26,0,0,1-9.68,5.72,40.46,40.46,0,0,1-13.15,2Zm5-8.85H130.1a27.94,27.94,0,0,0,9-1.29,16.12,16.12,0,0,0,6.35-3.84,15.79,15.79,0,0,0,3.8-6.43,29.74,29.74,0,0,0,1.25-9.06q0-10.35-5.09-15.45t-15.28-5.09H119.58Z"/><path class="cls-1" d="M178,343.17a5.47,5.47,0,0,1-4-1.46,5.68,5.68,0,0,1-1.47-4.21V289.32a5.12,5.12,0,0,1,5.68-5.68h29.14a4.45,4.45,0,0,1,3.26,1.08,4.21,4.21,0,0,1,1.08,3.09,4.46,4.46,0,0,1-1.08,3.22,4.34,4.34,0,0,1-3.26,1.13H183.2v16.61h22.38a4.41,4.41,0,0,1,3.21,1.09,4,4,0,0,1,1.13,3.09,3.94,3.94,0,0,1-4.34,4.34H183.2V337.5C183.2,341.28,181.48,343.17,178,343.17Z"/></g></g></svg>